<?xml version="1.0" encoding="utf-8"?>
<!-- Generator: Adobe Illustrator 19.1.0, SVG Export Plug-In . SVG Version: 6.00 Build 0)  -->
<svg version="1.1" id="Layer_1" xmlns="http://www.w3.org/2000/svg" xmlns:xlink="http://www.w3.org/1999/xlink" x="0px" y="0px"
	 viewBox="0 0 24.6 40" style="enable-background:new 0 0 24.6 40;" xml:space="preserve">
<style type="text/css">
	.st0{fill:#B12024;}
	.st1{fill:#FFFEF6;}
	.st2{fill:#FFD62C;stroke:#FFFEF6;stroke-miterlimit:10;}
	.st3{fill:#F9A034;}
</style>
<path class="st0" d="M12.3,0C5.5,0,0,5.3,0,11.8c0,0.2-0.1,0.9,0.2,2.3c0.2,0.8,0.4,1.6,0.8,2.3c0.2,0.6,0.5,1.2,0.9,1.9
	c1.7,3.3,4.2,7.2,6.1,10.6c4.1,7.5,4.3,11.1,4.3,11.1h0c0,0,0.2-3.6,4.3-11.1c1.9-3.4,4.4-7.3,6.1-10.6c0.4-0.7,0.7-1.3,0.9-1.9
	c0.3-0.7,0.6-1.5,0.8-2.3c0.3-1.4,0.2-2.2,0.2-2.3C24.6,5.3,19.1,0,12.3,0L12.3,0z"/>
<path class="st1" d="M17.9,11.5h-1.9c-0.3,0-0.6-0.3-0.6-0.6v0c0-0.3,0.3-0.6,0.6-0.6h1.9c0.3,0,0.6,0.3,0.6,0.6v0
	C18.6,11.3,18.3,11.5,17.9,11.5z"/>
<path class="st1" d="M17.9,16.4h-1.9c-0.3,0-0.6-0.3-0.6-0.6v0c0-0.3,0.3-0.6,0.6-0.6h1.9c0.3,0,0.6,0.3,0.6,0.6v0
	C18.6,16.2,18.3,16.4,17.9,16.4z"/>
<path class="st1" d="M18.6,11v4.8c0,0.3-0.3,0.6-0.6,0.6l0,0c-0.3,0-0.6-0.3-0.6-0.6V11c0-0.3,0.3-0.6,0.6-0.6l0,0
	C18.3,10.4,18.6,10.6,18.6,11z"/>
<path class="st2" d="M12.1,19L12.1,19c-0.8,0-2.3-0.1-2.9-0.5c-1-0.7-1-2-1-3.3v-3.9c0-1-0.1-2.7,0.6-3.4c0.7-0.7,2.2-0.4,3.2-0.4
	l0,0c1.1,0,2.7-0.1,3.4,0.7c0.6,0.7,0.4,2.2,0.4,3.1v3.9c0,1.2,0.1,2.6-0.8,3.3C14.4,19,12.9,19,12.1,19z"/>
<path class="st1" d="M8.2,9.4v-1c0-0.5,0.4-0.9,0.9-0.9h5.8c0.5,0,0.9,0.4,0.9,0.9v1H8.2z"/>
<path class="st3" d="M10.7,17.4h-0.3c-0.2,0-0.4-0.2-0.4-0.4v0c0-0.2,0.2-0.4,0.4-0.4h0.3c0.2,0,0.4,0.2,0.4,0.4v0
	C11.2,17.2,11,17.4,10.7,17.4z"/>
<path class="st3" d="M14.1,17.4h-1.8c-0.2,0-0.4-0.2-0.4-0.4l0,0c0-0.2,0.2-0.4,0.4-0.4h1.8c0.2,0,0.4,0.2,0.4,0.4l0,0
	C14.5,17.2,14.3,17.4,14.1,17.4z"/>
<path class="st3" d="M13.6,17v-5.3c0-0.2,0.2-0.4,0.4-0.4h0c0.2,0,0.4,0.2,0.4,0.4V17c0,0.2-0.2,0.4-0.4,0.4h0
	C13.8,17.4,13.6,17.2,13.6,17z"/>
</svg>
